<?xml version="1.0" encoding="utf-8"?>
<!-- Generator: Adobe Illustrator 18.1.1, SVG Export Plug-In . SVG Version: 6.00 Build 0)  -->
<svg version="1.1" id="レイヤー_1" xmlns="http://www.w3.org/2000/svg" xmlns:xlink="http://www.w3.org/1999/xlink" x="0px"
	 y="0px" viewBox="0 0 320 60" enable-background="new 0 0 320 60" xml:space="preserve">
<g>
	<path fill="#0085C0" d="M16.8,17.6c2.9,0,5.2,1.4,6.7,3l-2.3,2.6c-1.2-1.2-2.6-1.9-4.4-1.9c-3.9,0-6.6,3.2-6.6,8.5
		c0,5.4,2.6,8.6,6.5,8.6c2.1,0,3.6-0.9,5-2.3l2.3,2.6c-1.9,2.2-4.4,3.4-7.3,3.4C10.7,42,6,37.7,6,29.8C6,22.1,10.8,17.6,16.8,17.6z"
		/>
	<path fill="#0085C0" d="M36.2,29.7c0-7.6,4.2-12.1,10.4-12.1c6.1,0,10.4,4.5,10.4,12.1C57,37.3,52.7,42,46.6,42
		C40.4,42,36.2,37.3,36.2,29.7z M52.7,29.7c0-5.3-2.4-8.5-6.1-8.5c-3.7,0-6.1,3.2-6.1,8.5c0,5.3,2.4,8.7,6.1,8.7
		C50.3,38.3,52.7,35,52.7,29.7z"/>
	<path fill="#0085C0" d="M72.4,18h6.3c7.2,0,11.5,3.9,11.5,11.7c0,7.8-4.3,11.9-11.3,11.9h-6.5V18z M78.4,38.2
		c4.8,0,7.5-2.7,7.5-8.5c0-5.8-2.7-8.3-7.5-8.3h-1.8v16.8H78.4z"/>
	<path fill="#0085C0" d="M105.6,18h14.1v3.5h-10v6h8.5v3.5h-8.5V38h10.3v3.5h-14.5V18z"/>
	<path fill="#E7373C" d="M210.2,18h14.1v3.5h-10v6h8.5v3.5h-8.5V38h10.3v3.5h-14.5V18z"/>
	<path fill="#E7373C" d="M240.2,18h4.6l4.2,11.6l1.5,4.5h0.1l1.5-4.5l4.1-11.6h4.6v23.5h-3.9V30.8c0-2.2,0.3-5.3,0.5-7.5h-0.1
		l-1.9,5.4l-4.1,10.7h-1.9l-4.1-10.7l-1.9-5.4h-0.1c0.2,2.2,0.5,5.3,0.5,7.5v10.8h-3.8V18z"/>
	<path fill="#E7373C" d="M277.7,18h4.2v23.5h-4.2V18z"/>
	<path fill="#E7373C" d="M303.3,21.5h-6.8V18h17.7v3.5h-6.8v20h-4.2V21.5z"/>
</g>
<line fill="none" x1="149.3" y1="4.7" x2="135" y2="30.3"/>
<g>
	<rect x="135.2" y="4.8" fill="none" width="59.2" height="51"/>
</g>
<path fill="#0085C0" d="M164.3,55.4L150,30.7c-0.1-0.2-0.1-0.5,0-0.8l14.2-24.6c0.1-0.2,0-0.5-0.3-0.5h-14.2c-0.3,0-0.5,0.2-0.7,0.4
	L135.3,30c-0.1,0.2-0.1,0.5,0,0.8l13.8,24.7c0.1,0.2,0.4,0.4,0.7,0.4H164C164.3,55.9,164.4,55.6,164.3,55.4z"/>
<path fill="#E7373C" d="M170.8,55.3l14.1-24.4c0.2-0.3,0.2-0.7,0-1L170.8,5.4c-0.2-0.3,0-0.6,0.3-0.6h8.1c0.3,0,0.7,0.2,0.8,0.5
	l14.2,24.5c0.2,0.3,0.2,0.7,0,1L180,55.4c-0.2,0.3-0.5,0.5-0.8,0.5h-8.1C170.8,55.9,170.6,55.5,170.8,55.3z"/>
<path fill="#E7373C" d="M167.8,50.2l14-24.3c0.2-0.3,0-0.6-0.3-0.6h-7.6c-0.4,0-0.7,0.2-0.9,0.5l-9.7,16.9c-0.2,0.3-0.2,0.7,0,1
	l3.8,6.6C167.3,50.4,167.7,50.4,167.8,50.2z"/>
<path fill="#E7373C" d="M160.5,37.4l14.1-24.3c0.2-0.3,0-0.6-0.3-0.6h-7.6c-0.4,0-0.7,0.2-0.8,0.5L156,29.9c-0.2,0.3-0.2,0.7,0,1
	l3.8,6.6C159.9,37.7,160.3,37.7,160.5,37.4z"/>
</svg>
