<svg xmlns="http://www.w3.org/2000/svg" viewBox="0 0 320 60"><path fill="#0085C0" d="M16.8 17.6c2.9 0 5.2 1.4 6.7 3l-2.3 2.6c-1.2-1.2-2.6-1.9-4.4-1.9-3.9 0-6.6 3.2-6.6 8.5 0 5.4 2.6 8.6 6.5 8.6 2.1 0 3.6-.9 5-2.3l2.3 2.6c-1.9 2.2-4.4 3.4-7.3 3.4C10.7 42 6 37.7 6 29.8c0-7.7 4.8-12.2 10.8-12.2zM36.2 29.7c0-7.6 4.2-12.1 10.4-12.1 6.1 0 10.4 4.5 10.4 12.1S52.7 42 46.6 42c-6.2 0-10.4-4.7-10.4-12.3zm16.5 0c0-5.3-2.4-8.5-6.1-8.5-3.7 0-6.1 3.2-6.1 8.5s2.4 8.7 6.1 8.7c3.7-.1 6.1-3.4 6.1-8.7zM72.4 18h6.3c7.2 0 11.5 3.9 11.5 11.7 0 7.8-4.3 11.9-11.3 11.9h-6.5V18zm6 20.2c4.8 0 7.5-2.7 7.5-8.5s-2.7-8.3-7.5-8.3h-1.8v16.8h1.8zM105.6 18h14.1v3.5h-10v6h8.5V31h-8.5v7H120v3.5h-14.5V18z"/><path fill="#E7373C" d="M210.2 18h14.1v3.5h-10v6h8.5V31h-8.5v7h10.3v3.5h-14.5V18zM240.2 18h4.6l4.2 11.6 1.5 4.5h.1l1.5-4.5 4.1-11.6h4.6v23.5h-3.9V30.8c0-2.2.3-5.3.5-7.5h-.1l-1.9 5.4-4.1 10.7h-1.9l-4.1-10.7-1.9-5.4h-.1c.2 2.2.5 5.3.5 7.5v10.8H240V18zM277.7 18h4.2v23.5h-4.2V18zM303.3 21.5h-6.8V18h17.7v3.5h-6.8v20h-4.2v-20z"/><path fill="none" d="M149.3 4.7L135 30.3"/><g><path fill="none" d="M135.2 4.8h59.2v51h-59.2z"/></g><path fill="#0085C0" d="M164.3 55.4L150 30.7c-.1-.2-.1-.5 0-.8l14.2-24.6c.1-.2 0-.5-.3-.5h-14.2c-.3 0-.5.2-.7.4L135.3 30c-.1.2-.1.5 0 .8l13.8 24.7c.1.2.4.4.7.4H164c.3 0 .4-.3.3-.5z"/><path fill="#E7373C" d="M170.8 55.3l14.1-24.4c.2-.3.2-.7 0-1L170.8 5.4c-.2-.3 0-.6.3-.6h8.1c.3 0 .7.2.8.5l14.2 24.5c.2.3.2.7 0 1L180 55.4c-.2.3-.5.5-.8.5h-8.1c-.3 0-.5-.4-.3-.6z"/><path fill="#E7373C" d="M167.8 50.2l14-24.3c.2-.3 0-.6-.3-.6h-7.6c-.4 0-.7.2-.9.5l-9.7 16.9c-.2.3-.2.7 0 1l3.8 6.6c.2.1.6.1.7-.1zM160.5 37.4l14.1-24.3c.2-.3 0-.6-.3-.6h-7.6c-.4 0-.7.2-.8.5L156 29.9c-.2.3-.2.7 0 1l3.8 6.6c.1.2.5.2.7-.1z"/></svg>